name Walk2.mot
datacolumns 19
datarows 27
range 3.15000000 3.28000000
endheader

                time	   L_ground_force_vx	   L_ground_force_vy	   L_ground_force_vz	   L_ground_force_px	   L_ground_force_py	   L_ground_force_pz	   R_ground_force_vx	   R_ground_force_vy	   R_ground_force_vz	   R_ground_force_px	   R_ground_force_py	   R_ground_force_pz	   L_ground_torque_x	   L_ground_torque_y	   L_ground_torque_z	   R_ground_torque_x	   R_ground_torque_y	   R_ground_torque_z	
          3.15000000	        -17.00188343	        155.33031285	         -7.53230150	         -0.05851027	          0.00000000	         -0.00309161	          0.00000000	         -0.00000000	         -0.00000000	         -0.00000000	          0.00000000	         -0.00000000	          0.00000000	          0.23699801	          0.00000000	          0.00000000	         -0.00000000	          0.00000000	
          3.15500000	        -30.36475363	        219.09237459	        -10.90152317	         -0.12841820	          0.00000000	         -0.00994448	          0.00000000	         -0.00000000	         -0.00000000	         -0.00000000	          0.00000000	         -0.00000000	          0.00000000	          0.32261931	          0.00000000	          0.00000000	         -0.00000000	          0.00000000	
          3.16000000	        -43.39221842	        285.84278141	        -14.56577581	         -0.18952554	          0.00000000	         -0.01577834	          0.00000000	         -0.00000000	         -0.00000000	         -0.00000000	          0.00000000	         -0.00000000	          0.00000000	          0.43473217	          0.00000000	          0.00000000	         -0.00000000	          0.00000000	
          3.16500000	        -55.87575545	        352.03978365	        -18.28102072	         -0.24000067	          0.00000000	         -0.02048392	          0.00000000	         -0.00000000	         -0.00000000	         -0.00000000	          0.00000000	         -0.00000000	          0.00000000	          0.57104492	          0.00000000	          0.00000000	         -0.00000000	          0.00000000	
          3.17000000	        -67.88757571	        414.60439962	        -21.65165286	         -0.27950581	          0.00000000	         -0.02411024	          0.00000000	         -0.00000000	         -0.00000000	         -0.00000000	          0.00000000	         -0.00000000	          0.00000000	          0.72842583	          0.00000000	          0.00000000	         -0.00000000	          0.00000000	
          3.17500000	        -79.44938117	        471.24102275	        -24.23929316	         -0.30868998	          0.00000000	         -0.02679050	          0.00000000	         -0.00000000	         -0.00000000	         -0.00000000	          0.00000000	         -0.00000000	          0.00000000	          0.90094030	          0.00000000	          0.00000000	         -0.00000000	          0.00000000	
          3.18000000	        -90.29800862	        520.36626349	        -25.70929215	         -0.32878432	          0.00000000	         -0.02869257	          0.00000000	         -0.00000000	         -0.00000000	         -0.00000000	          0.00000000	         -0.00000000	          0.00000000	          1.07698748	          0.00000000	          0.00000000	         -0.00000000	          0.00000000	
          3.18500000	        -99.90621562	        561.20277962	        -25.85833317	         -0.34129168	          0.00000000	         -0.02999091	          0.00000000	         -0.00000000	         -0.00000000	         -0.00000000	          0.00000000	         -0.00000000	          0.00000000	          1.24016027	          0.00000000	          0.00000000	         -0.00000000	          0.00000000	
          3.19000000	       -107.78106847	        593.82044380	        -24.56054151	         -0.34775957	          0.00000000	         -0.03085131	          0.00000000	         -0.00000000	         -0.00000000	         -0.00000000	          0.00000000	         -0.00000000	          0.00000000	          1.37361535	          0.00000000	          0.00000000	         -0.00000000	          0.00000000	
          3.19500000	       -113.83273571	        618.90710586	        -21.74455094	         -0.34962927	          0.00000000	         -0.03142105	          0.00000000	         -0.00000000	         -0.00000000	         -0.00000000	          0.00000000	         -0.00000000	          0.00000000	          1.46401522	          0.00000000	          0.00000000	         -0.00000000	          0.00000000	
          3.20000000	       -118.46967616	        637.50288771	        -17.42515708	         -0.34815166	          0.00000000	         -0.03182036	          0.00000000	         -0.00000000	         -0.00000000	          0.00000000	          0.00000000	          0.00000000	          0.00000000	          1.50430197	          0.00000000	          0.00000000	         -0.00000000	          0.00000000	
          3.20500000	       -122.35765569	        650.89416034	        -11.72781203	         -0.34435809	          0.00000000	         -0.03213911	          0.00000000	         -0.00000000	          0.00000000	          0.00000000	          0.00000000	          0.00000000	          0.00000000	          1.49587186	          0.00000000	          0.00000000	         -0.00000000	          0.00000000	
          3.21000000	       -126.10609008	        660.56516959	         -4.87715260	         -0.33906837	          0.00000000	         -0.03243849	         -0.00000000	          0.00000000	          0.00000000	          0.00000000	          0.00000000	          0.00000000	          0.00000000	          1.44928549	          0.00000000	          0.00000000	         -0.00000000	          0.00000000	
          3.21500000	       -130.10169653	        668.06961276	          2.81536412	         -0.33291874	          0.00000000	         -0.03275293	         -0.00000000	          0.00000000	          0.00000000	          0.00000000	          0.00000000	          0.00000000	          0.00000000	          1.38419638	          0.00000000	          0.00000000	          0.00000000	          0.00000000	
          3.22000000	       -134.49770212	        674.81644940	         10.95145530	         -0.32640053	          0.00000000	         -0.03309304	         -0.00000000	          0.00000000	          0.00000000	          0.00000000	          0.00000000	          0.00000000	          0.00000000	          1.32778861	          0.00000000	          0.00000000	          0.00000000	          0.00000000	
          3.22500000	       -139.24870628	        681.84796077	         19.06207599	         -0.31989629	          0.00000000	         -0.03345075	         -0.00000000	          0.00000000	          0.00000000	          0.00000000	          0.00000000	          0.00000000	          0.00000000	          1.30910619	          0.00000000	          0.00000000	          0.00000000	          0.00000000	
          3.23000000	       -144.13082263	        689.82675440	         26.67416977	         -0.31369125	          0.00000000	         -0.03380701	         -0.00000000	          0.00000000	          0.00000000	          0.00000000	          0.00000000	          0.00000000	          0.00000000	          1.35064990	          0.00000000	          0.00000000	          0.00000000	          0.00000000	
          3.23500000	       -148.82254365	        699.24755067	         33.41955884	         -0.30797708	          0.00000000	         -0.03414030	         -0.00000000	          0.00000000	          0.00000000	          0.00000000	          0.00000000	          0.00000000	          0.00000000	          1.46200034	          0.00000000	          0.00000000	          0.00000000	          0.00000000	
          3.24000000	       -153.05926566	        710.56043704	         39.10555068	         -0.30286570	          0.00000000	         -0.03443139	         -0.00000000	          0.00000000	          0.00000000	          0.00000000	          0.00000000	          0.00000000	          0.00000000	          1.63765031	          0.00000000	          0.00000000	          0.00000000	          0.00000000	
          3.24500000	       -156.70585048	        724.10952119	         43.69101931	         -0.29840056	          0.00000000	         -0.03466617	         -0.00000000	          0.00000000	          0.00000000	          0.00000000	          0.00000000	          0.00000000	          0.00000000	          1.86107988	          0.00000000	          0.00000000	          0.00000000	          0.00000000	
          3.25000000	       -159.72139031	        740.02000407	         47.22475377	         -0.29457170	          0.00000000	         -0.03483711	         -0.00000000	          0.00000000	          0.00000000	          0.00000000	          0.00000000	          0.00000000	          0.00000000	          2.11208432	          0.00000000	          0.00000000	          0.00000000	          0.00000000	
          3.25500000	       -162.11551222	        758.15251288	         49.79832777	         -0.29133354	          0.00000000	         -0.03494198	         -0.00000000	          0.00000000	          0.00000000	          0.00000000	          0.00000000	          0.00000000	          0.00000000	          2.37283804	          0.00000000	          0.00000000	          0.00000000	          0.00000000	
          3.26000000	       -163.92196522	        778.13703778	         51.51324925	         -0.28861972	          0.00000000	         -0.03498295	         -0.00000000	          0.00000001	          0.00000000	          0.00000000	          0.00000000	          0.00000000	          0.00000000	          2.63046660	          0.00000000	          0.00000000	          0.00000000	          0.00000000	
          3.26500000	       -165.18329325	        799.46082833	         52.46661874	         -0.28635478	          0.00000000	         -0.03496535	         -0.00000000	          0.00000001	          0.00000000	          0.00000000	          0.00000000	          0.00000000	          0.00000000	          2.87579218	          0.00000000	          0.00000000	          0.00000000	          0.00000000	
          3.27000000	       -165.94784729	        821.57541869	         52.76085172	         -0.28446188	          0.00000000	         -0.03489777	         -0.00000000	          0.00000000	          0.00000000	         -0.00000000	          0.00000000	         -0.00000000	          0.00000000	          3.10045804	          0.00000000	          0.00000000	          0.00000000	          0.00000000	
          3.27500000	       -166.26811583	        843.98155343	         52.52041203	         -0.28286893	          0.00000000	         -0.03479149	         -0.00000000	          0.00000000	          0.00000000	         -0.00000000	          0.00000000	         -0.00000000	          0.00000000	          3.29551645	          0.00000000	          0.00000000	          0.00000000	          0.00000000	
          3.28000000	       -166.19172686	        866.26731314	         51.89494780	         -0.28151305	          0.00000000	         -0.03465824	         -0.00000000	         -0.00000000	         -0.00000000	         -0.00000000	          0.00000000	         -0.00000000	          0.00000000	          3.45234364	          0.00000000	          0.00000000	          0.00000000	          0.00000000	
